# xmcd CD database file
#
# Track frame offsets:
#	225
#	39343
#	75718
#	94482
#	141145
#	160332
#	213035
#	240702
#	259380
#
# Disc length: 3929 seconds
#
# Revision: 1
# Processed by: cddbd v1.5.1PL0 Copyright (c) Steve Scherf et al.
# Submitted via: CDex 1.51
#
DISCID=780f5609
DTITLE=Marek Stryszowski - Little Egoist
DYEAR=1900
DGENRE=Jazz
TTITLE0=Siandelok na lajwie
TTITLE1=Furage
TTITLE2=People
TTITLE3=Radio Wieliczka
TTITLE4=Salt Miners Reggae
TTITLE5=Nogero
TTITLE6=You're not a Star
TTITLE7=Lament
TTITLE8=Heart of Eart
EXTD=
EXTT0=
EXTT1=
EXTT2=
EXTT3=
EXTT4=
EXTT5=
EXTT6=
EXTT7=
EXTT8=
PLAYORDER=
